<svg xmlns="http://www.w3.org/2000/svg" viewBox="0 0 20 20">
    <style>
        g {
            display: none;
        }
        g:target {
            display: inline;
        }
    </style>
    <g id="light">
    <path
        d="M12.5 7.5 10 0 7.5 7.5 0 10l7.5 2.5L10 20l2.5-7.5L20 10l-7.5-2.5ZM3.333 10l5-1.667L9.167 10H3.333ZM10 16.667l-1.667-5L10 10.833v5.834Zm0-13.334 1.667 5L10 9.167V3.333Zm1.667 8.334L10.833 10h5.834l-5 1.667Zm-4.417 2.75-3.083 1.416 1.416-3.083 1.334.417.333 1.25Zm7.167-1.667 1.416 3.083-3.083-1.416.417-1.334 1.25-.333Zm-8.834-5.5L4.167 4.167 7.25 5.583l-.417 1.25-1.25.417Zm7.167-1.667 3.083-1.416-1.416 3.083-1.334-.417-.333-1.25Z"
        fill="#1C1917"
    />
    </g>
    <g id="dark">
        <path
                d="M12.5 7.5 10 0 7.5 7.5 0 10l7.5 2.5L10 20l2.5-7.5L20 10l-7.5-2.5ZM3.333 10l5-1.667L9.167 10H3.333ZM10 16.667l-1.667-5L10 10.833v5.834Zm0-13.334 1.667 5L10 9.167V3.333Zm1.667 8.334L10.833 10h5.834l-5 1.667Zm-4.417 2.75-3.083 1.416 1.416-3.083 1.334.417.333 1.25Zm7.167-1.667 1.416 3.083-3.083-1.416.417-1.334 1.25-.333Zm-8.834-5.5L4.167 4.167 7.25 5.583l-.417 1.25-1.25.417Zm7.167-1.667 3.083-1.416-1.416 3.083-1.334-.417-.333-1.25Z"
                fill="#FAFAF9"
        />
    </g>
</svg>
