<svg width="32" height="32" viewBox="0 0 32 32" fill="none" xmlns="http://www.w3.org/2000/svg">
<g clip-path="url(#clip0_135_306)">
<path d="M20 12L16 0L12 12L0 16L12 20L16 32L20 20L32 16L20 12ZM5.33333 16L13.3333 13.3333L14.6667 16H5.33333ZM16 26.6667L13.3333 18.6667L16 17.3333V26.6667ZM16 5.33333L18.6667 13.3333L16 14.6667V5.33333ZM18.6667 18.6667L17.3333 16H26.6667L18.6667 18.6667ZM11.6 23.0667L6.66667 25.3333L8.93333 20.4L11.0667 21.0667L11.6 23.0667ZM23.0667 20.4L25.3333 25.3333L20.4 23.0667L21.0667 20.9333L23.0667 20.4ZM8.93333 11.6L6.66667 6.66667L11.6 8.93333L10.9333 10.9333L8.93333 11.6ZM20.4 8.93333L25.3333 6.66667L23.0667 11.6L20.9333 10.9333L20.4 8.93333Z" fill="#1C1917"/>
</g>
<defs>
<clipPath id="clip0_135_306">
<rect width="32" height="32" fill="white"/>
</clipPath>
</defs>
</svg>
